<svg width="36" height="36" viewBox="0 0 36 36" fill="none" xmlns="http://www.w3.org/2000/svg">
<rect width="36" height="36" rx="18" fill="white"/>
<path fill-rule="evenodd" clip-rule="evenodd" d="M17.9841 1C8.60528 1 1 8.60359 1 17.9841C1 25.4884 5.86647 31.8545 12.6148 34.1006C13.4633 34.2581 13.7749 33.7322 13.7749 33.2836C13.7749 32.8786 13.7592 31.5407 13.7519 30.1215C9.02688 31.1489 8.02984 28.1176 8.02984 28.1176C7.25725 26.1544 6.14406 25.6324 6.14406 25.6324C4.60281 24.5783 6.26022 24.6003 6.26022 24.6003C7.96544 24.7198 8.86375 26.3505 8.86375 26.3505C10.3786 28.9464 12.837 28.196 13.8062 27.7623C13.9586 26.6646 14.3988 25.9151 14.8845 25.491C11.1121 25.0621 7.14616 23.6055 7.14616 17.0976C7.14616 15.2433 7.80991 13.7283 8.89638 12.5386C8.71975 12.1111 8.13841 10.3836 9.06063 8.04419C9.06063 8.04419 10.4866 7.58772 13.7322 9.78512C15.0872 9.40853 16.5405 9.21925 17.9841 9.21278C19.4269 9.21925 20.881 9.40797 22.2386 9.78456C25.4803 7.58716 26.9045 8.04362 26.9045 8.04362C27.829 10.3828 27.2477 12.1105 27.0713 12.538C28.1603 13.7277 28.8193 15.2428 28.8193 17.0971C28.8193 23.6204 24.8461 25.0564 21.0641 25.4772C21.6736 26.0043 22.2164 27.0381 22.2164 28.6224C22.2164 30.8949 22.1967 32.7239 22.1967 33.2833C22.1967 33.7353 22.5027 34.2648 23.3633 34.0981C30.1077 31.8498 34.9685 25.4856 34.9685 17.9841C34.9683 8.60415 27.3638 1 17.9841 1Z" fill="#181616"/>
<path d="M7.43276 25.3852C7.39536 25.4695 7.26261 25.4948 7.14167 25.4372C7.01792 25.3821 6.94901 25.267 6.98895 25.1824C7.02551 25.0952 7.15854 25.0713 7.28145 25.1295C7.4052 25.1849 7.47551 25.3011 7.43248 25.3854L7.43276 25.3852ZM8.1207 26.1527C8.03998 26.2278 7.88164 26.1929 7.7742 26.0739C7.66282 25.9558 7.64201 25.7975 7.72442 25.7213C7.80823 25.6464 7.96179 25.6819 8.07317 25.8C8.18398 25.9198 8.20592 26.0768 8.12098 26.153L8.1207 26.1527ZM8.79064 27.1306C8.68657 27.2032 8.51614 27.1354 8.41095 26.9843C8.30689 26.833 8.30689 26.6516 8.41376 26.5793C8.51867 26.5068 8.68657 26.5723 8.79345 26.7219C8.89695 26.8752 8.89695 27.0569 8.79064 27.1306ZM9.70779 28.0759C9.61498 28.1785 9.41642 28.151 9.27129 28.0112C9.12307 27.8742 9.08173 27.6793 9.17482 27.5769C9.26932 27.474 9.46873 27.5027 9.6147 27.6416C9.76292 27.7783 9.80764 27.9735 9.70836 28.0756L9.70779 28.0759ZM10.9734 28.6246C10.9321 28.7576 10.7414 28.8181 10.5487 28.7613C10.3566 28.7031 10.2309 28.5475 10.2703 28.4131C10.3097 28.2789 10.5018 28.2162 10.6955 28.2767C10.8876 28.3346 11.0134 28.4893 10.9734 28.6246ZM12.3636 28.7261C12.3684 28.8662 12.2053 28.9821 12.0036 28.9849C11.8003 28.9897 11.6358 28.876 11.6338 28.7382C11.6338 28.5968 11.7935 28.4823 11.9966 28.4783C12.1983 28.4747 12.3639 28.5872 12.3639 28.7258L12.3636 28.7261ZM13.6568 28.5062C13.681 28.6426 13.5407 28.7829 13.3401 28.8203C13.1433 28.8569 12.9604 28.772 12.9351 28.6367C12.9109 28.4966 13.0538 28.3563 13.2507 28.32C13.4515 28.2854 13.6315 28.3675 13.6568 28.5062Z" fill="#181616"/>
</svg>
