<svg width="144" height="34" viewBox="0 0 144 34" fill="none" xmlns="http://www.w3.org/2000/svg">
<g clip-path="url(#clip0_166_78)">
<path opacity="0.1" d="M17 34C26.3888 34 34 26.3888 34 17C34 7.61116 26.3888 0 17 0C7.61116 0 0 7.61116 0 17C0 26.3888 7.61116 34 17 34Z" fill="#4F46E5"/>
<path d="M14 14H20V20L17 22.5V20H14V14Z" fill="#4F46E5" stroke="#4F46E5" stroke-width="0.8"/>
<path opacity="0.8" d="M21 9H26.5V14H25L24 15.5V14H21V9Z" fill="#7C3AED"/>
<path opacity="0.8" d="M21.5 21.5H27V26.5H25.5L24.5 28V26.5H21.5V21.5Z" fill="#06B6D4"/>
<path opacity="0.8" d="M6 15.5H11.5V20H10L9 21.5V20H6V15.5Z" fill="#8B5CF6"/>
<path d="M17 17.8C17.4418 17.8 17.8 17.4418 17.8 17C17.8 16.5581 17.4418 16.2 17 16.2C16.5582 16.2 16.2 16.5581 16.2 17C16.2 17.4418 16.5582 17.8 17 17.8Z" fill="#4F46E5"/>
<path d="M23 13.0999C23.3314 13.0999 23.6 12.8313 23.6 12.4999C23.6 12.1685 23.3314 11.8999 23 11.8999C22.6686 11.8999 22.4 12.1685 22.4 12.4999C22.4 12.8313 22.6686 13.0999 23 13.0999Z" fill="#7C3AED"/>
<path d="M23 23.5999C23.3314 23.5999 23.6 23.3313 23.6 22.9999C23.6 22.6685 23.3314 22.3999 23 22.3999C22.6686 22.3999 22.4 22.6685 22.4 22.9999C22.4 23.3313 22.6686 23.5999 23 23.5999Z" fill="#06B6D4"/>
<path d="M10 17.5999C10.3314 17.5999 10.6 17.3313 10.6 16.9999C10.6 16.6685 10.3314 16.3999 10 16.3999C9.66863 16.3999 9.4 16.6685 9.4 16.9999C9.4 17.3313 9.66863 17.5999 10 17.5999Z" fill="#8B5CF6"/>
<path d="M45.6 24.5V10.64H54.88V13.26H48.72V16.16H54.2V18.78H48.72V24.5H45.6ZM66.5291 19.22C66.5291 20.0467 66.4091 20.8067 66.1691 21.5C65.9291 22.18 65.5824 22.7667 65.1291 23.26C64.6757 23.74 64.1291 24.1133 63.4891 24.38C62.8624 24.6467 62.1557 24.78 61.3691 24.78C60.5957 24.78 59.8891 24.6467 59.2491 24.38C58.6224 24.1133 58.0824 23.74 57.6291 23.26C57.1757 22.7667 56.8224 22.18 56.5691 21.5C56.3157 20.8067 56.1891 20.0467 56.1891 19.22C56.1891 18.3933 56.3157 17.64 56.5691 16.96C56.8357 16.28 57.1957 15.7 57.6491 15.22C58.1157 14.74 58.6624 14.3667 59.2891 14.1C59.9291 13.8333 60.6224 13.7 61.3691 13.7C62.1291 13.7 62.8224 13.8333 63.4491 14.1C64.0891 14.3667 64.6357 14.74 65.0891 15.22C65.5424 15.7 65.8957 16.28 66.1491 16.96C66.4024 17.64 66.5291 18.3933 66.5291 19.22ZM63.4891 19.22C63.4891 18.3 63.3024 17.58 62.9291 17.06C62.5691 16.5267 62.0491 16.26 61.3691 16.26C60.6891 16.26 60.1624 16.5267 59.7891 17.06C59.4157 17.58 59.2291 18.3 59.2291 19.22C59.2291 20.14 59.4157 20.8733 59.7891 21.42C60.1624 21.9533 60.6891 22.22 61.3691 22.22C62.0491 22.22 62.5691 21.9533 62.9291 21.42C63.3024 20.8733 63.4891 20.14 63.4891 19.22ZM75.1775 16.62C74.9108 16.5533 74.5975 16.4867 74.2375 16.42C73.8775 16.34 73.4908 16.3 73.0775 16.3C72.8908 16.3 72.6642 16.32 72.3975 16.36C72.1442 16.3867 71.9508 16.42 71.8175 16.46V24.5H68.8375V14.54C69.3708 14.3533 69.9975 14.18 70.7175 14.02C71.4508 13.8467 72.2642 13.76 73.1575 13.76C73.3175 13.76 73.5108 13.7733 73.7375 13.8C73.9642 13.8133 74.1908 13.84 74.4175 13.88C74.6442 13.9067 74.8708 13.9467 75.0975 14C75.3242 14.04 75.5175 14.0933 75.6775 14.16L75.1775 16.62ZM86.255 24.14C85.7483 24.2867 85.095 24.42 84.295 24.54C83.495 24.6733 82.655 24.74 81.775 24.74C80.8817 24.74 80.135 24.62 79.535 24.38C78.9483 24.14 78.4817 23.8067 78.135 23.38C77.7883 22.94 77.5417 22.42 77.395 21.82C77.2483 21.22 77.175 20.56 77.175 19.84V13.98H80.155V19.48C80.155 20.44 80.2817 21.1333 80.535 21.56C80.7883 21.9867 81.2617 22.2 81.955 22.2C82.1683 22.2 82.395 22.1933 82.635 22.18C82.875 22.1533 83.0883 22.1267 83.275 22.1V13.98H86.255V24.14ZM94.8323 18.92C94.8323 17.96 94.7057 17.28 94.4523 16.88C94.2123 16.48 93.7923 16.28 93.1923 16.28C93.0057 16.28 92.8123 16.2933 92.6123 16.32C92.4123 16.3333 92.219 16.3533 92.0323 16.38V24.5H89.0523V14.34C89.3057 14.2733 89.599 14.2067 89.9323 14.14C90.279 14.06 90.639 13.9933 91.0123 13.94C91.399 13.8733 91.7923 13.8267 92.1923 13.8C92.5923 13.76 92.9857 13.74 93.3723 13.74C94.1323 13.74 94.7457 13.84 95.2123 14.04C95.6923 14.2267 96.0857 14.4533 96.3923 14.72C96.819 14.4133 97.3057 14.1733 97.8523 14C98.4123 13.8267 98.9257 13.74 99.3923 13.74C100.232 13.74 100.919 13.86 101.452 14.1C101.999 14.3267 102.432 14.6533 102.752 15.08C103.072 15.5067 103.292 16.0133 103.412 16.6C103.532 17.1867 103.592 17.84 103.592 18.56V24.5H100.612V18.92C100.612 17.96 100.486 17.28 100.232 16.88C99.9923 16.48 99.5723 16.28 98.9723 16.28C98.8123 16.28 98.5857 16.32 98.2923 16.4C98.0123 16.48 97.779 16.58 97.5923 16.7C97.6857 17.0067 97.7457 17.3333 97.7723 17.68C97.799 18.0133 97.8123 18.3733 97.8123 18.76V24.5H94.8323V18.92Z" fill="#1F2937"/>
<path d="M114.858 10.64H117.978V24.5H114.858V18.62H109.618V24.5H106.498V10.64H109.618V15.94H114.858V10.64ZM129.966 24.14C129.459 24.2867 128.806 24.42 128.006 24.54C127.206 24.6733 126.366 24.74 125.486 24.74C124.593 24.74 123.846 24.62 123.246 24.38C122.659 24.14 122.193 23.8067 121.846 23.38C121.499 22.94 121.253 22.42 121.106 21.82C120.959 21.22 120.886 20.56 120.886 19.84V13.98H123.866V19.48C123.866 20.44 123.993 21.1333 124.246 21.56C124.499 21.9867 124.973 22.2 125.666 22.2C125.879 22.2 126.106 22.1933 126.346 22.18C126.586 22.1533 126.799 22.1267 126.986 22.1V13.98H129.966V24.14ZM139.503 19.16C139.503 17.24 138.797 16.28 137.383 16.28C137.077 16.28 136.77 16.32 136.463 16.4C136.17 16.48 135.93 16.58 135.743 16.7V22.12C135.89 22.1467 136.077 22.1733 136.303 22.2C136.53 22.2133 136.777 22.22 137.043 22.22C137.857 22.22 138.47 21.94 138.883 21.38C139.297 20.82 139.503 20.08 139.503 19.16ZM142.543 19.24C142.543 20.08 142.417 20.84 142.163 21.52C141.923 22.2 141.57 22.78 141.103 23.26C140.637 23.74 140.063 24.1133 139.383 24.38C138.703 24.6333 137.93 24.76 137.063 24.76C136.703 24.76 136.323 24.74 135.923 24.7C135.537 24.6733 135.15 24.6333 134.763 24.58C134.39 24.5267 134.03 24.4667 133.683 24.4C133.337 24.32 133.03 24.24 132.763 24.16V9.46L135.743 8.98V14.22C136.077 14.0733 136.423 13.96 136.783 13.88C137.143 13.8 137.53 13.76 137.943 13.76C138.69 13.76 139.35 13.8933 139.923 14.16C140.497 14.4133 140.977 14.78 141.363 15.26C141.75 15.74 142.043 16.32 142.243 17C142.443 17.6667 142.543 18.4133 142.543 19.24Z" fill="#4F46E5"/>
</g>
<defs>
<clipPath id="clip0_166_78">
<rect width="144" height="34" fill="white"/>
</clipPath>
</defs>
</svg>
