<svg width="26" height="26" viewBox="0 0 26 26" fill="none" xmlns="http://www.w3.org/2000/svg">
<g clip-path="url(#clip0_1_228)">
<path d="M25.8103 24.8902L19.3103 18.3902C19.3072 18.3872 19.3033 18.3863 19.3003 18.3837C21.0367 16.432 22.1005 13.8684 22.1005 11.05C22.1005 4.94736 17.1531 0 11.0505 0C4.94785 0 0.000488281 4.94736 0.000488281 11.05C0.000488281 17.1526 4.94785 22.1 11.0505 22.1C13.8689 22.1 16.432 21.0362 18.3842 19.2994C18.3873 19.3024 18.3881 19.3063 18.3907 19.3093L24.8907 25.8093C25.0177 25.9367 25.1841 26 25.3505 26C25.5169 26 25.6833 25.9367 25.8103 25.8098C26.0638 25.5558 26.0638 25.1442 25.8103 24.8902ZM11.0505 20.8C5.67453 20.8 1.30049 16.426 1.30049 11.05C1.30049 5.67404 5.67453 1.3 11.0505 1.3C16.4264 1.3 20.8005 5.67404 20.8005 11.05C20.8005 16.426 16.4264 20.8 11.0505 20.8Z" fill="#27272A"/>
</g>
<defs>
<clipPath id="clip0_1_228">
<rect width="26" height="26" fill="white"/>
</clipPath>
</defs>
</svg>
