<svg width="20" height="20" viewBox="0 0 20 20" fill="none" xmlns="http://www.w3.org/2000/svg">
<g clip-path="url(#clip0_1_162)">
<path d="M5.52741 0.0780716C1.99226 0.171822 2.06647 0.167915 1.71882 0.289009C0.863349 0.581978 0.253974 1.35542 0.179755 2.24995C0.16413 2.39838 0.117255 3.97651 0.0742866 5.75776C-0.0116509 9.20698 -0.00774463 9.28901 0.168037 9.70698C0.211005 9.81244 0.308662 9.99994 0.38288 10.1171C0.472724 10.2617 1.98444 11.8007 4.91413 14.7421C7.33601 17.164 9.44147 19.2578 9.59772 19.3906C10.2501 19.957 11.0469 20.1328 11.8399 19.8867C12.3751 19.7187 12.4493 19.6484 16.1368 15.9531C19.4532 12.6249 19.6016 12.4687 19.7383 12.1874C20.1016 11.4531 20.0743 10.6367 19.6602 9.94135C19.5548 9.76166 18.4649 8.64838 15.1016 5.27729C12.6719 2.8437 10.5587 0.742134 10.4024 0.609322C10.0782 0.328072 9.70319 0.132759 9.33991 0.0546341C9.02741 -0.0117722 8.85163 -0.00786591 5.52741 0.0780716ZM9.37507 1.02338C9.57819 1.0976 9.85163 1.36323 14.2266 5.73432C19.1993 10.7031 18.9844 10.4726 19.0587 10.9414C19.0977 11.1953 19.043 11.5234 18.9219 11.7695C18.7735 12.0664 12.0665 18.7734 11.7696 18.9218C11.3751 19.1171 10.9415 19.121 10.5157 18.9257C10.3165 18.8359 9.78913 18.3203 5.73444 14.2656C0.769599 9.30073 1.01179 9.56244 0.941474 9.05073C0.925849 8.93744 0.953193 7.35151 1.00007 5.52729C1.0821 2.33979 1.08991 2.19917 1.16804 1.98432C1.31647 1.5976 1.59772 1.31635 1.98444 1.16792C2.19929 1.08979 2.34382 1.08198 5.48835 0.999947C7.29304 0.949165 8.85944 0.921822 8.96491 0.929634C9.07429 0.941353 9.25788 0.984322 9.37507 1.02338Z" fill="#71717A"/>
<path d="M5.43357 3.85151C5.04685 3.95698 4.72263 4.14057 4.43357 4.43354C3.59372 5.27339 3.56638 6.60932 4.37107 7.4726C4.80466 7.93354 5.33982 8.16792 5.96482 8.16792C6.5781 8.17182 7.11325 7.95307 7.53122 7.5312C7.9531 7.11323 8.17185 6.57807 8.16794 5.96479C8.16794 4.95698 7.49216 4.10151 6.50388 3.8476C6.21482 3.77339 5.71091 3.77729 5.43357 3.85151ZM6.55075 4.8476C6.81638 4.97651 7.0156 5.17964 7.15622 5.46479C7.28122 5.71479 7.28122 6.22651 7.16013 6.49214C7.04294 6.75385 6.75388 7.04292 6.51169 7.15229C6.22653 7.2812 5.72263 7.2851 5.46482 7.1562C5.17575 7.01557 4.97653 6.81635 4.83982 6.53901C4.59763 6.04682 4.69138 5.46479 5.07419 5.08198C5.47263 4.68354 6.02732 4.5937 6.55075 4.8476Z" fill="#71717A"/>
</g>
<defs>
<clipPath id="clip0_1_162">
<rect width="20" height="20" fill="white"/>
</clipPath>
</defs>
</svg>
